<?xml version="1.0" encoding="utf-8"?>
<!-- Generator: Adobe Illustrator 22.0.1, SVG Export Plug-In . SVG Version: 6.00 Build 0)  -->
<svg version="1.1" id="Layer_1" xmlns="http://www.w3.org/2000/svg" xmlns:xlink="http://www.w3.org/1999/xlink" x="0px" y="0px"
	 viewBox="0 0 250 250" style="enable-background:new 0 0 250 250;" xml:space="preserve">
<style type="text/css">
	.st0{fill:#0AC6A6;}
</style>
<g>
	<path class="st0" d="M231.421,175.012h-5.296c0.591-1.598,0.93-3.318,0.93-5.119V60.232c0-8.172-6.648-14.819-14.821-14.819H37.765
		c-8.173,0-14.821,6.647-14.821,14.819v109.661c0,1.801,0.339,3.521,0.93,5.119h-5.296c-2.679,0-4.851,2.172-4.851,4.851v19.873
		c0,2.679,2.172,4.851,4.851,4.851h212.842c2.679,0,4.851-2.172,4.851-4.851v-19.873C236.272,177.185,234.1,175.012,231.421,175.012
		z M32.646,169.893V60.232c0-2.822,2.296-5.118,5.119-5.118h174.469c2.823,0,5.119,2.296,5.119,5.118v109.661
		c0,2.823-2.296,5.119-5.119,5.119H37.765C34.942,175.012,32.646,172.716,32.646,169.893z M226.57,194.885H23.43v-10.172h14.336
		h174.469h14.336V194.885z"/>
	<path class="st0" d="M203.727,62.313H46.272c-2.679,0-4.851,2.172-4.851,4.851v95.798c0,2.679,2.172,4.851,4.851,4.851h157.455
		c2.679,0,4.851-2.172,4.851-4.851V67.164C208.578,64.485,206.405,62.313,203.727,62.313z M198.876,158.111H51.123V72.014h147.753
		V158.111z"/>
	<path class="st0" d="M120.754,126.416c0.715,2.731,3.133,3.561,5.374,1.845l3.027-2.318l7.726,10.09l6.957-5.327l-7.726-10.09
		l3.317-2.54c2.241-1.716,2.07-4.267-0.379-5.669l-21.378-12.237c-2.45-1.402-3.869-0.315-3.155,2.415L120.754,126.416z"/>
</g>
</svg>
