<?xml version="1.0" encoding="utf-8"?>
<!-- Generator: Adobe Illustrator 23.0.1, SVG Export Plug-In . SVG Version: 6.00 Build 0)  -->
<svg version="1.1" id="Layer_1" xmlns="http://www.w3.org/2000/svg" xmlns:xlink="http://www.w3.org/1999/xlink" x="0px" y="0px"
	 viewBox="0 0 250 250" style="enable-background:new 0 0 250 250;" xml:space="preserve">
<style type="text/css">
	.st0{fill:#0AC6A6;}
</style>
<g>
	<path class="st0" d="M78.966,166.267H34.341c-2.679,0-4.851,2.172-4.851,4.851v43.722c0,2.679,2.172,4.851,4.851,4.851h44.625
		c2.679,0,4.851-2.172,4.851-4.851v-43.722C83.817,168.439,81.645,166.267,78.966,166.267z M74.116,209.988H39.192v-34.02h34.924
		V209.988z"/>
	<path class="st0" d="M147.313,129.451h-44.625c-2.679,0-4.851,2.172-4.851,4.851v80.538c0,2.679,2.172,4.851,4.851,4.851h44.625
		c2.679,0,4.851-2.172,4.851-4.851v-80.538C152.163,131.623,149.991,129.451,147.313,129.451z M142.462,209.988h-34.924v-70.836
		h34.924V209.988z"/>
	<path class="st0" d="M215.659,75.809h-44.625c-2.679,0-4.851,2.172-4.851,4.851v134.18c0,2.679,2.172,4.851,4.851,4.851h44.625
		c2.679,0,4.851-2.172,4.851-4.851V80.659C220.51,77.981,218.338,75.809,215.659,75.809z M210.808,209.988h-34.924V85.51h34.924
		V209.988z"/>
	<path class="st0" d="M104.019,117.835h18.773c1.436,0,2.798-0.636,3.72-1.738l46.994-56.159l31.117-8.122l-3.885,8.915
		c-1.071,2.456,0.053,5.314,2.509,6.384c0.631,0.276,1.288,0.407,1.935,0.407c1.872,0,3.654-1.09,4.449-2.915l8.457-19.405
		c0.514-1.18,0.538-2.515,0.068-3.712c-0.471-1.197-1.398-2.158-2.577-2.673l-18.596-8.103c-2.461-1.068-5.316,0.055-6.385,2.51
		c-1.071,2.456,0.053,5.314,2.509,6.385l7.443,3.243l-30.995,8.091c-0.975,0.255-1.847,0.808-2.494,1.581l-46.535,55.609h-17.839
		c-0.872,0-1.727,0.234-2.476,0.679l-68.346,40.569l4.952,8.344L104.019,117.835z"/>
</g>
</svg>
