<?xml version="1.0" encoding="utf-8"?>
<!-- Generator: Adobe Illustrator 22.0.1, SVG Export Plug-In . SVG Version: 6.00 Build 0)  -->
<svg version="1.1" id="Layer_1" xmlns="http://www.w3.org/2000/svg" xmlns:xlink="http://www.w3.org/1999/xlink" x="0px" y="0px"
	 viewBox="0 0 250 250" style="enable-background:new 0 0 250 250;" xml:space="preserve">
<style type="text/css">
	.st0{fill:#0AC6A6;}
</style>
<g>
	<path class="st0" d="M119.184,124.463c-2.222-1.501-5.238-0.914-6.735,1.306l-6.83,10.115c-0.541,0.802-0.83,1.748-0.83,2.715
		v21.864l-39.86,20.404c-2.386,1.22-3.328,4.143-2.108,6.528c0.86,1.678,2.56,2.642,4.322,2.642c0.744,0,1.499-0.171,2.207-0.534
		l42.5-21.755c1.621-0.829,2.641-2.497,2.641-4.318v-23.347l6-8.884C121.988,128.977,121.404,125.962,119.184,124.463z"/>
	<path class="st0" d="M135.508,163.428c0,1.821,1.02,3.488,2.641,4.318l42.502,21.755c0.708,0.363,1.462,0.534,2.207,0.534
		c1.762,0,3.462-0.965,4.322-2.642c1.22-2.385,0.276-5.307-2.108-6.528l-39.861-20.404v-21.864c0-0.967-0.289-1.913-0.83-2.715
		l-6.83-10.115c-1.499-2.22-4.515-2.807-6.735-1.306c-2.22,1.499-2.804,4.515-1.306,6.735l6,8.884V163.428z"/>
	<g>
		<path class="st0" d="M218.818,196.213l-23.783-84.239c-0.462-1.638-1.748-2.914-3.392-3.362l-33.441-9.126
			c-2.717,2.905-5.752,5.456-9.043,7.587l37.285,10.175l22.188,78.594l-25.876,21.882l-41.577-32.822
			c-2.103-1.657-5.154-1.301-6.813,0.802c-1.661,2.103-1.302,5.153,0.801,6.814l44.688,35.278c0.882,0.696,1.945,1.043,3.006,1.043
			c1.114,0,2.229-0.383,3.132-1.147l31.288-26.458C218.733,200.007,219.334,198.043,218.818,196.213z"/>
		<path class="st0" d="M162.13,62.571c0-22.834-16.657-41.411-37.131-41.411S87.87,39.737,87.87,62.571
			c0,22.833,16.655,41.41,37.13,41.41S162.13,85.405,162.13,62.571z M124.999,93.981c-14.96,0-27.13-14.091-27.13-31.411
			s12.17-31.41,27.13-31.41s27.132,14.09,27.132,31.41S139.959,93.981,124.999,93.981z"/>
		<path class="st0" d="M108.821,184.903l-41.577,32.822l-25.876-21.882l22.188-78.594l37.285-10.175
			c-3.291-2.131-6.326-4.682-9.043-7.587l-33.44,9.126c-1.643,0.448-2.93,1.723-3.392,3.362l-23.783,84.239
			c-0.517,1.83,0.084,3.794,1.537,5.021l31.288,26.458c0.903,0.764,2.017,1.147,3.132,1.147c1.061,0,2.124-0.347,3.006-1.043
			l44.688-35.278c2.103-1.661,2.462-4.71,0.801-6.814C113.975,183.602,110.924,183.246,108.821,184.903z"/>
	</g>
</g>
</svg>
